<svg version="1.1" id="Layer_1" xmlns="http://www.w3.org/2000/svg" xmlns:xlink="http://www.w3.org/1999/xlink" x="0px" y="0px"
	 width="100%" viewBox="0 0 2000 2747" enable-background="new 0 0 2000 2747" xml:space="preserve">
<path fill="#4C6971" opacity="1.000000" stroke="none" 
	d="
M1016.000000,2750.000000 
	C677.333313,2750.000000 339.666656,2750.000000 2.000000,2750.000000 
	C2.000000,1834.000000 2.000000,918.000000 2.000000,2.000000 
	C668.666687,2.000000 1335.333374,2.000000 2002.000000,2.000000 
	C2002.000000,918.000000 2002.000000,1834.000000 2002.000000,2750.000000 
	C1673.666626,2750.000000 1345.333374,2750.000000 1016.000000,2750.000000 
M1310.081665,772.102722 
	C1315.075684,772.068481 1320.069702,772.004578 1325.063721,772.004395 
	C1472.896729,771.999023 1620.729614,772.019958 1768.562622,771.917236 
	C1773.769775,771.913635 1778.976196,770.691223 1785.073853,769.334229 
	C1786.095459,768.289001 1787.116943,767.243774 1788.930298,765.676880 
	C1789.438721,765.159302 1789.540649,764.571228 1789.587524,762.079102 
	C1789.614014,676.060059 1789.644043,590.041016 1789.643188,504.022003 
	C1789.643188,502.048889 1789.292725,500.075745 1789.194946,497.197754 
	C1789.063110,496.567383 1788.725586,496.079193 1787.957153,494.645630 
	C1786.861450,493.715515 1785.765869,492.785400 1783.380005,490.621063 
	C1779.737671,490.413910 1776.095581,490.031128 1772.453003,490.026794 
	C1735.135498,489.982513 1697.817993,489.999634 1660.500488,489.999634 
	C1454.921021,489.999634 1249.341431,489.988770 1043.761963,490.076935 
	C1039.617676,490.078705 1035.473999,491.235352 1029.911499,492.587280 
	C1029.161621,496.375916 1027.763062,500.163574 1027.757446,503.953339 
	C1027.637085,583.810852 1027.673706,663.668701 1026.816895,744.114868 
	C1026.747192,744.767151 1026.677490,745.419373 1026.382690,747.924866 
	C1026.365234,752.252380 1026.332275,756.579834 1026.332153,760.907349 
	C1026.329712,986.943604 1026.332886,1212.979858 1026.309082,1439.016113 
	C1026.308716,1443.328247 1025.994995,1447.640503 1025.298096,1452.331055 
	C1024.925659,1452.969360 1024.984741,1453.556763 1025.626587,1455.950562 
	C1025.637939,1650.577881 1025.649902,1845.205078 1025.651489,2039.832397 
	C1025.651489,2041.829102 1025.515625,2043.825684 1024.406616,2045.689209 
	C1023.713562,2045.753906 1023.020447,2045.818604 1021.901611,2044.309937 
	C1013.151367,1993.624634 1004.391846,1942.940918 995.654053,1892.253540 
	C988.944641,1853.332397 982.307617,1814.398682 975.558044,1775.484619 
	C964.953491,1714.345459 954.292236,1653.216064 943.634155,1592.086304 
	C936.053589,1548.607422 928.419373,1505.138062 920.844177,1461.658203 
	C912.641296,1414.574951 904.433533,1367.492554 896.311523,1320.395386 
	C887.288452,1268.073242 878.431824,1215.722290 869.370361,1163.406982 
	C860.251770,1110.762085 850.920715,1058.154053 841.779114,1005.513123 
	C836.214844,973.471680 830.901733,941.386658 825.350952,909.342834 
	C818.893311,872.064148 812.289978,834.810669 805.766663,797.543335 
	C799.357971,760.930481 792.943604,724.318481 786.581177,687.697571 
	C780.275879,651.405518 774.042480,615.100891 767.758057,578.805176 
	C763.286682,552.981201 758.774902,527.164246 754.302673,501.340393 
	C753.605957,497.317657 752.855286,493.386566 746.873596,490.877441 
	C744.260559,490.584991 741.647644,490.037811 739.034485,490.036804 
	C629.599121,489.993988 520.163818,489.984558 410.728516,490.077972 
	C407.588898,490.080658 404.450256,491.240417 399.914917,492.116791 
	C395.447876,494.468597 395.022339,498.909332 394.274872,503.145538 
	C391.910248,516.547729 389.662659,529.970947 387.238922,543.362305 
	C378.133606,593.670227 368.973328,643.968201 359.839386,694.270935 
	C351.417969,740.649536 342.988342,787.026733 334.591248,833.409790 
	C327.138153,874.578308 319.696106,915.748840 312.301392,956.927917 
	C303.204498,1007.585754 294.199432,1058.260010 285.084045,1108.914673 
	C277.499115,1151.064575 269.775757,1193.189453 262.179688,1235.337402 
	C253.169754,1285.330078 244.292664,1335.346802 235.242249,1385.332153 
	C227.020630,1430.739990 218.556198,1476.103882 210.358582,1521.515869 
	C201.217621,1572.153564 192.325729,1622.836182 183.199722,1673.476562 
	C172.835617,1730.986816 162.318130,1788.469604 151.893860,1845.968994 
	C142.831955,1895.953857 133.775513,1945.939697 124.778419,1995.936157 
	C119.840134,2023.378052 115.029594,2050.843018 109.543968,2079.313965 
	C109.340538,2080.882568 109.137108,2082.451172 108.446304,2085.611816 
	C108.550415,2088.372314 108.654526,2091.132812 108.608459,2094.836426 
	C108.803207,2095.497314 109.221588,2095.952881 110.260330,2097.288086 
	C111.453697,2098.255615 112.647064,2099.223145 115.325775,2100.979492 
	C118.610069,2101.319092 121.894165,2101.952881 125.178680,2101.955078 
	C206.288605,2102.010254 287.398621,2102.023682 368.508484,2101.922119 
	C372.392853,2101.917236 376.275818,2100.793457 381.335388,2099.364746 
	C386.422607,2096.005615 386.802399,2090.374023 387.563965,2085.264404 
	C393.919006,2042.624512 400.008484,1999.945435 406.294830,1957.295288 
	C408.032990,1945.502563 410.162964,1933.767578 413.973206,1922.004395 
	C517.944641,1922.003906 621.916077,1922.003540 726.267456,1923.596436 
	C728.774719,1940.297607 731.325928,1956.992310 733.780334,1973.701294 
	C739.318665,2011.403809 744.808777,2049.113281 750.319153,2086.820068 
	C751.104980,2092.197266 752.407715,2097.282471 759.293762,2100.864990 
	C762.900696,2101.243164 766.507324,2101.948730 770.114563,2101.951416 
	C850.863464,2102.014404 931.612427,2102.022461 1012.361328,2101.928955 
	C1016.258728,2101.924316 1020.155029,2100.895020 1025.532104,2100.065186 
	C1027.031982,2100.136719 1028.531860,2100.208252 1031.492798,2101.023926 
	C1034.784302,2101.349121 1038.075684,2101.958008 1041.367188,2101.958496 
	C1285.741333,2102.002686 1530.115356,2102.007080 1774.489502,2101.923828 
	C1778.379517,2101.922363 1782.269165,2100.793701 1787.395264,2099.323730 
	C1792.572510,2096.508789 1791.667236,2091.581787 1791.667358,2086.980713 
	C1791.670776,2001.347412 1791.672241,1915.713989 1791.658203,1830.080688 
	C1791.657715,1827.419678 1791.485718,1824.758789 1791.629883,1821.078735 
	C1791.180420,1820.578003 1790.730957,1820.077148 1789.893677,1818.493896 
	C1788.708130,1817.568115 1787.522583,1816.642334 1784.932617,1814.720337 
	C1780.295776,1814.480591 1775.659058,1814.032349 1771.022217,1814.031128 
	C1621.568115,1813.994385 1472.114014,1814.003296 1322.659912,1813.990112 
	C1317.336060,1813.989624 1312.012085,1813.833496 1306.404785,1811.926392 
	C1306.385010,1680.051270 1306.364624,1548.176270 1306.355469,1416.301147 
	C1306.355347,1414.972656 1306.501953,1413.644287 1308.366821,1412.194580 
	C1313.358521,1412.129761 1318.350342,1412.008667 1323.342041,1412.008301 
	C1473.817749,1411.998291 1624.293335,1412.017944 1774.768921,1411.911865 
	C1779.203247,1411.908691 1783.636353,1410.598267 1788.832397,1409.344727 
	C1789.316650,1408.928955 1789.694580,1408.432129 1790.830200,1407.549683 
	C1791.411377,1407.111328 1791.548096,1406.562256 1791.588379,1404.069458 
	C1791.524658,1373.412964 1791.460938,1342.756348 1791.639038,1311.070923 
	C1791.198608,1310.551636 1790.758179,1310.032349 1790.334473,1307.699585 
	C1790.335815,1292.405518 1790.389404,1277.111084 1790.325928,1261.817261 
	C1790.232178,1239.219482 1790.055054,1216.622070 1790.025879,1192.934692 
	C1789.872803,1192.603027 1789.719727,1192.271484 1789.650391,1190.074585 
	C1789.564819,1172.749023 1789.479370,1155.423340 1789.629883,1137.078979 
	C1789.180298,1136.578735 1788.730713,1136.078613 1787.926147,1134.280151 
	C1786.007080,1133.462891 1784.088013,1132.645752 1781.141846,1130.432739 
	C1777.156128,1130.288452 1773.170288,1130.018555 1769.184570,1130.017944 
	C1619.242920,1129.996460 1469.301270,1130.002930 1319.359619,1129.984131 
	C1315.033691,1129.983521 1310.707764,1129.750854 1306.346558,1127.799072 
	C1306.343750,1012.588562 1306.338623,897.378052 1306.350464,782.167542 
	C1306.350708,778.842957 1306.531860,775.518311 1307.434204,772.295105 
	C1307.434204,772.295105 1308.238525,772.184143 1310.081665,772.102722 
z"/>
<path fill="#FFFFFF" opacity="1.000000" stroke="none" 
	d="
M108.758636,2093.893311 
	C108.654526,2091.132812 108.550415,2088.372314 109.109573,2084.365234 
	C109.902382,2081.511475 110.031921,2079.904541 110.161453,2078.297363 
	C115.029594,2050.843018 119.840134,2023.378052 124.778419,1995.936157 
	C133.775513,1945.939697 142.831955,1895.953857 151.893860,1845.968994 
	C162.318130,1788.469604 172.835617,1730.986816 183.199722,1673.476562 
	C192.325729,1622.836182 201.217621,1572.153564 210.358582,1521.515869 
	C218.556198,1476.103882 227.020630,1430.739990 235.242249,1385.332153 
	C244.292664,1335.346802 253.169754,1285.330078 262.179688,1235.337402 
	C269.775757,1193.189453 277.499115,1151.064575 285.084045,1108.914673 
	C294.199432,1058.260010 303.204498,1007.585754 312.301392,956.927917 
	C319.696106,915.748840 327.138153,874.578308 334.591248,833.409790 
	C342.988342,787.026733 351.417969,740.649536 359.839386,694.270935 
	C368.973328,643.968201 378.133606,593.670227 387.238922,543.362305 
	C389.662659,529.970947 391.910248,516.547729 394.274872,503.145538 
	C395.022339,498.909332 395.447876,494.468597 401.604004,492.026672 
	C518.245728,491.971252 633.198364,492.006012 748.151001,492.040771 
	C752.855286,493.386566 753.605957,497.317657 754.302673,501.340393 
	C758.774902,527.164246 763.286682,552.981201 767.758057,578.805176 
	C774.042480,615.100891 780.275879,651.405518 786.581177,687.697571 
	C792.943604,724.318481 799.357971,760.930481 805.766663,797.543335 
	C812.289978,834.810669 818.893311,872.064148 825.350952,909.342834 
	C830.901733,941.386658 836.214844,973.471680 841.779114,1005.513123 
	C850.920715,1058.154053 860.251770,1110.762085 869.370361,1163.406982 
	C878.431824,1215.722290 887.288452,1268.073242 896.311523,1320.395386 
	C904.433533,1367.492554 912.641296,1414.574951 920.844177,1461.658203 
	C928.419373,1505.138062 936.053589,1548.607422 943.634155,1592.086304 
	C954.292236,1653.216064 964.953491,1714.345459 975.558044,1775.484619 
	C982.307617,1814.398682 988.944641,1853.332397 995.654053,1892.253540 
	C1004.391846,1942.940918 1013.151367,1993.624634 1022.005859,2045.843506 
	C1022.978455,2051.087891 1023.846802,2054.798828 1024.715210,2058.509766 
	C1024.957764,2058.458008 1025.200439,2058.406250 1025.443115,2058.354492 
	C1025.443115,2054.177002 1025.443115,2049.999756 1025.443115,2045.822388 
	C1025.515625,2043.825684 1025.651489,2041.829102 1025.651489,2039.832397 
	C1025.649902,1845.205078 1025.637939,1650.577881 1025.755615,1454.505981 
	C1025.865601,1452.691895 1025.846558,1452.322266 1025.827515,1451.952637 
	C1025.994995,1447.640503 1026.308716,1443.328247 1026.309082,1439.016113 
	C1026.332886,1212.979858 1026.329712,986.943604 1026.332153,760.907349 
	C1026.332275,756.579834 1026.365234,752.252380 1026.836182,746.654053 
	C1027.678345,744.818665 1027.808472,744.199707 1027.679688,743.526428 
	C1027.673706,663.668701 1027.637085,583.810852 1027.757446,503.953339 
	C1027.763062,500.163574 1029.161621,496.375916 1031.609131,492.260895 
	C1035.970947,491.955475 1038.635254,491.994812 1041.299561,491.994843 
	C1285.759888,491.997681 1530.220337,491.998016 1774.680664,491.991577 
	C1778.010498,491.991486 1781.340332,491.902710 1784.670166,491.855286 
	C1785.765869,492.785400 1786.861450,493.715515 1788.010498,495.648102 
	C1788.152466,497.320312 1788.499634,497.804352 1789.105713,498.102631 
	C1789.292725,500.075745 1789.643188,502.048889 1789.643188,504.022003 
	C1789.644043,590.041016 1789.614014,676.060059 1789.051025,763.272400 
	C1788.124390,764.985840 1787.999023,765.563416 1788.138428,766.198486 
	C1787.116943,767.243774 1786.095459,768.289001 1783.670166,769.641052 
	C1628.449341,769.965515 1474.632324,769.979675 1320.815186,770.018494 
	C1316.498047,770.019531 1312.181030,770.283752 1307.402100,770.467896 
	C1306.354126,770.981873 1306.250244,771.542969 1306.628662,772.193726 
	C1306.531860,775.518311 1306.350708,778.842957 1306.350464,782.167542 
	C1306.338623,897.378052 1306.343750,1012.588562 1306.970459,1129.226562 
	C1312.186646,1131.102417 1316.778809,1131.940918 1321.371216,1131.942993 
	C1470.973022,1132.011353 1620.574951,1132.000610 1770.176758,1131.991821 
	C1774.174194,1131.991577 1778.171509,1131.885376 1782.168945,1131.828491 
	C1784.088013,1132.645752 1786.007080,1133.462891 1788.115479,1135.411377 
	C1788.478149,1137.193848 1788.841064,1137.712158 1789.393799,1138.097778 
	C1789.479370,1155.423340 1789.564819,1172.749023 1789.428223,1191.262207 
	C1789.086792,1193.143188 1789.322632,1193.668091 1789.913330,1194.024414 
	C1790.055054,1216.622070 1790.232178,1239.219482 1790.325928,1261.817261 
	C1790.389404,1277.111084 1790.335815,1292.405518 1790.326904,1309.097656 
	C1790.482544,1311.162231 1790.841797,1311.696899 1791.397217,1312.099854 
	C1791.460938,1342.756348 1791.524658,1373.412964 1791.063477,1405.203369 
	C1790.157227,1406.770996 1789.966309,1407.276733 1789.965942,1407.854370 
	C1789.694580,1408.432129 1789.316650,1408.928955 1787.504395,1409.629150 
	C1702.622925,1409.942627 1619.069458,1409.981079 1535.515991,1409.997559 
	C1463.280273,1410.011841 1391.044434,1409.963623 1318.809082,1410.100220 
	C1314.731323,1410.107910 1310.656372,1411.544312 1306.580078,1412.315796 
	C1306.501953,1413.644287 1306.355347,1414.972656 1306.355469,1416.301147 
	C1306.364624,1548.176270 1306.385010,1680.051270 1306.963623,1813.530029 
	C1311.810181,1815.422485 1316.097656,1815.962524 1320.385498,1815.963745 
	C1471.373535,1816.007202 1622.361450,1816.002441 1773.349487,1815.988159 
	C1777.678711,1815.987793 1782.007935,1815.811035 1786.337158,1815.716553 
	C1787.522583,1816.642334 1788.708130,1817.568115 1790.099365,1819.517578 
	C1790.478149,1821.192871 1790.841064,1821.711670 1791.393799,1822.097778 
	C1791.485718,1824.758789 1791.657715,1827.419678 1791.658203,1830.080688 
	C1791.672241,1915.713989 1791.670776,2001.347412 1791.667358,2086.980713 
	C1791.667236,2091.581787 1792.572510,2096.508789 1785.824463,2099.679688 
	C1534.504150,2100.023926 1284.754761,2100.011719 1035.005371,2100.011963 
	C1033.347534,2100.011963 1031.689575,2100.186523 1030.031738,2100.280029 
	C1028.531860,2100.208252 1027.031982,2100.136719 1023.858337,2100.063965 
	C934.062317,2100.053955 845.940063,2100.045410 757.817810,2100.036865 
	C752.407715,2097.282471 751.104980,2092.197266 750.319153,2086.820068 
	C744.808777,2049.113281 739.318665,2011.403809 733.780334,1973.701294 
	C731.325928,1956.992310 728.774719,1940.297607 725.691589,1922.026367 
	C721.474243,1920.304321 717.832886,1920.021851 714.191345,1920.020142 
	C656.366821,1919.992432 598.542236,1920.000610 540.717712,1920.000610 
	C501.171051,1920.000732 461.624207,1919.952637 422.078003,1920.087524 
	C418.754242,1920.098877 415.434662,1921.337646 412.113159,1922.006104 
	C410.162964,1933.767578 408.032990,1945.502563 406.294830,1957.295288 
	C400.008484,1999.945435 393.919006,2042.624512 387.563965,2085.264404 
	C386.802399,2090.374023 386.422607,2096.005615 379.794678,2099.700195 
	C331.356842,2100.024170 284.459717,2099.983887 237.562653,2100.009277 
	C196.321915,2100.031738 155.081207,2100.127441 113.840454,2100.190674 
	C112.647064,2099.223145 111.453697,2098.255615 110.067230,2096.287109 
	C109.726318,2094.642334 109.354485,2094.178223 108.758636,2093.893311 
M570.019836,949.689880 
	C570.039612,951.802856 570.059326,953.915771 569.742310,957.652466 
	C569.244263,961.589539 568.834839,965.540222 568.229980,969.460815 
	C566.899841,978.081299 565.190430,986.652832 564.151550,995.306274 
	C562.770691,1006.807983 562.412476,1018.449097 560.681396,1029.889038 
	C555.370300,1064.988281 549.609741,1100.019287 544.031311,1135.078003 
	C538.349487,1170.786255 532.869446,1206.527954 526.931763,1242.193481 
	C522.973999,1265.966431 518.039490,1289.577759 514.161682,1313.362427 
	C511.231964,1331.331665 509.614899,1349.512085 506.828888,1367.508057 
	C500.788330,1406.526245 494.356293,1445.483643 488.115936,1484.470947 
	C482.348938,1520.501221 476.578094,1556.530884 470.894958,1592.574341 
	C467.020630,1617.146240 463.294312,1641.741211 458.623810,1667.405029 
	C459.440216,1668.871826 459.952179,1671.192993 461.140381,1671.616211 
	C463.221436,1672.357788 465.717407,1671.990723 468.039612,1671.991089 
	C535.448303,1672.001221 602.857056,1672.005981 670.265747,1671.974609 
	C672.895325,1671.973389 675.550537,1671.747314 678.128113,1671.270874 
	C678.541809,1671.194458 678.608643,1669.241455 678.428528,1666.412109 
	C676.046997,1649.001221 673.787781,1631.572510 671.260559,1614.182861 
	C664.301086,1566.294556 657.193542,1518.427979 650.215210,1470.542358 
	C645.911987,1441.012817 641.821045,1411.452393 637.484436,1381.927856 
	C632.329956,1346.835571 626.930969,1311.779175 621.791016,1276.684814 
	C616.217834,1238.633301 610.880127,1200.547363 605.330688,1162.492432 
	C599.542419,1122.800293 593.737366,1083.109863 587.724915,1043.451416 
	C583.302795,1014.283447 578.534790,985.167969 574.098328,954.485840 
	C573.983215,952.419678 573.868103,950.353516 573.775391,947.078796 
	C572.996826,946.033691 572.218201,944.988647 571.439636,943.943542 
	C570.989014,945.330811 570.538330,946.718018 570.019836,949.689880 
z"/>
<path fill="#786971" opacity="1.000000" stroke="none" 
	d="
M1030.762207,2100.651855 
	C1031.689575,2100.186523 1033.347534,2100.011963 1035.005371,2100.011963 
	C1284.754761,2100.011719 1534.504150,2100.023926 1785.206299,2100.113281 
	C1782.269165,2100.793701 1778.379517,2101.922363 1774.489502,2101.923828 
	C1530.115356,2102.007080 1285.741333,2102.002686 1041.367188,2101.958496 
	C1038.075684,2101.958008 1034.784302,2101.349121 1030.762207,2100.651855 
z"/>
<path fill="#D2FFFF" opacity="1.000000" stroke="none" 
	d="
M1784.025146,491.238159 
	C1781.340332,491.902710 1778.010498,491.991486 1774.680664,491.991577 
	C1530.220337,491.998016 1285.759888,491.997681 1041.299561,491.994843 
	C1038.635254,491.994812 1035.970947,491.955475 1032.318359,491.893860 
	C1035.473999,491.235352 1039.617676,490.078705 1043.761963,490.076935 
	C1249.341431,489.988770 1454.921021,489.999634 1660.500488,489.999634 
	C1697.817993,489.999634 1735.135498,489.982513 1772.453003,490.026794 
	C1776.095581,490.031128 1779.737671,490.413910 1784.025146,491.238159 
z"/>
<path fill="#D2B4B8" opacity="1.000000" stroke="none" 
	d="
M1307.473389,1412.255127 
	C1310.656372,1411.544312 1314.731323,1410.107910 1318.809082,1410.100220 
	C1391.044434,1409.963623 1463.280273,1410.011841 1535.515991,1409.997559 
	C1619.069458,1409.981079 1702.622925,1409.942627 1787.123291,1409.905518 
	C1783.636353,1410.598267 1779.203247,1411.908691 1774.768921,1411.911865 
	C1624.293335,1412.017944 1473.817749,1411.998291 1323.342041,1412.008301 
	C1318.350342,1412.008667 1313.358521,1412.129761 1307.473389,1412.255127 
z"/>
<path fill="#78B4B8" opacity="1.000000" stroke="none" 
	d="
M1785.634888,1815.218506 
	C1782.007935,1815.811035 1777.678711,1815.987793 1773.349487,1815.988159 
	C1622.361450,1816.002441 1471.373535,1816.007202 1320.385498,1815.963745 
	C1316.097656,1815.962524 1311.810181,1815.422485 1307.105347,1814.441895 
	C1312.012085,1813.833496 1317.336060,1813.989624 1322.659912,1813.990112 
	C1472.114014,1814.003296 1621.568115,1813.994385 1771.022217,1814.031128 
	C1775.659058,1814.032349 1780.295776,1814.480591 1785.634888,1815.218506 
z"/>
<path fill="#786971" opacity="1.000000" stroke="none" 
	d="
M1307.863892,770.425232 
	C1312.181030,770.283752 1316.498047,770.019531 1320.815186,770.018494 
	C1474.632324,769.979675 1628.449341,769.965515 1783.224731,769.992371 
	C1778.976196,770.691223 1773.769775,771.913635 1768.562622,771.917236 
	C1620.729614,772.019958 1472.896729,771.999023 1325.063721,772.004395 
	C1320.069702,772.004578 1315.075684,772.068481 1309.067383,771.702759 
	C1308.053101,771.302856 1307.863892,770.425232 1307.863892,770.425232 
z"/>
<path fill="#D2FFFF" opacity="1.000000" stroke="none" 
	d="
M1781.655396,1131.130615 
	C1778.171509,1131.885376 1774.174194,1131.991577 1770.176758,1131.991821 
	C1620.574951,1132.000610 1470.973022,1132.011353 1321.371216,1131.942993 
	C1316.778809,1131.940918 1312.186646,1131.102417 1306.988037,1130.140137 
	C1310.707764,1129.750854 1315.033691,1129.983521 1319.359619,1129.984131 
	C1469.301270,1130.002930 1619.242920,1129.996460 1769.184570,1130.017944 
	C1773.170288,1130.018555 1777.156128,1130.288452 1781.655396,1131.130615 
z"/>
<path fill="#D2FFFF" opacity="1.000000" stroke="none" 
	d="
M747.512329,491.459106 
	C633.198364,492.006012 518.245728,491.971252 402.302124,491.898590 
	C404.450256,491.240417 407.588898,490.080658 410.728516,490.077972 
	C520.163818,489.984558 629.599121,489.993988 739.034485,490.036804 
	C741.647644,490.037811 744.260559,490.584991 747.512329,491.459106 
z"/>
<path fill="#786971" opacity="1.000000" stroke="none" 
	d="
M413.043152,1922.005249 
	C415.434662,1921.337646 418.754242,1920.098877 422.078003,1920.087524 
	C461.624207,1919.952637 501.171051,1920.000732 540.717712,1920.000610 
	C598.542236,1920.000610 656.366821,1919.992432 714.191345,1920.020142 
	C717.832886,1920.021851 721.474243,1920.304321 725.501587,1921.229736 
	C621.916077,1922.003540 517.944641,1922.003906 413.043152,1922.005249 
z"/>
<path fill="#786971" opacity="1.000000" stroke="none" 
	d="
M758.555786,2100.450928 
	C845.940063,2100.045410 934.062317,2100.053955 1023.118225,2100.202637 
	C1020.155029,2100.895020 1016.258728,2101.924316 1012.361328,2101.928955 
	C931.612427,2102.022461 850.863464,2102.014404 770.114563,2101.951416 
	C766.507324,2101.948730 762.900696,2101.243164 758.555786,2100.450928 
z"/>
<path fill="#786971" opacity="1.000000" stroke="none" 
	d="
M114.583130,2100.584961 
	C155.081207,2100.127441 196.321915,2100.031738 237.562653,2100.009277 
	C284.459717,2099.983887 331.356842,2100.024170 379.206696,2100.113281 
	C376.275818,2100.793457 372.392853,2101.917236 368.508484,2101.922119 
	C287.398621,2102.023682 206.288605,2102.010254 125.178680,2101.955078 
	C121.894165,2101.952881 118.610069,2101.319092 114.583130,2100.584961 
z"/>
<path fill="#798F95" opacity="1.000000" stroke="none" 
	d="
M1024.924805,2045.755859 
	C1025.443115,2049.999756 1025.443115,2054.177002 1025.443115,2058.354492 
	C1025.200439,2058.406250 1024.957764,2058.458008 1024.715210,2058.509766 
	C1023.846802,2054.798828 1022.978455,2051.087891 1022.218750,2046.630127 
	C1023.020447,2045.818604 1023.713562,2045.753906 1024.924805,2045.755859 
z"/>
<path fill="#D1D9DB" opacity="1.000000" stroke="none" 
	d="
M109.852707,2078.805664 
	C110.031921,2079.904541 109.902382,2081.511475 109.353256,2083.569336 
	C109.137108,2082.451172 109.340538,2080.882568 109.852707,2078.805664 
z"/>
<path fill="#D1D9DB" opacity="1.000000" stroke="none" 
	d="
M1789.150391,497.650208 
	C1788.499634,497.804352 1788.152466,497.320312 1788.123169,496.191833 
	C1788.725586,496.079193 1789.063110,496.567383 1789.150391,497.650208 
z"/>
<path fill="#D2DADC" opacity="1.000000" stroke="none" 
	d="
M1027.248291,743.820679 
	C1027.808472,744.199707 1027.678345,744.818665 1026.948730,745.727417 
	C1026.677490,745.419373 1026.747192,744.767151 1027.248291,743.820679 
z"/>
<path fill="#D1D9DB" opacity="1.000000" stroke="none" 
	d="
M108.683548,2094.364746 
	C109.354485,2094.178223 109.726318,2094.642334 109.868866,2095.744629 
	C109.221588,2095.952881 108.803207,2095.497314 108.683548,2094.364746 
z"/>
<path fill="#D2DADC" opacity="1.000000" stroke="none" 
	d="
M1791.511841,1821.588257 
	C1790.841064,1821.711670 1790.478149,1821.192871 1790.293213,1820.058838 
	C1790.730957,1820.077148 1791.180420,1820.578003 1791.511841,1821.588257 
z"/>
<path fill="#D1D9DB" opacity="1.000000" stroke="none" 
	d="
M1788.534424,765.937683 
	C1787.999023,765.563416 1788.124390,764.985840 1788.875244,764.189209 
	C1789.540649,764.571228 1789.438721,765.159302 1788.534424,765.937683 
z"/>
<path fill="#798F95" opacity="1.000000" stroke="none" 
	d="
M1025.562744,1452.141846 
	C1025.846558,1452.322266 1025.865601,1452.691895 1025.680176,1453.577393 
	C1024.984741,1453.556763 1024.925659,1452.969360 1025.562744,1452.141846 
z"/>
<path fill="#798F95" opacity="1.000000" stroke="none" 
	d="
M1307.402100,770.467896 
	C1307.863892,770.425232 1308.053101,771.302856 1308.145752,771.743530 
	C1308.238525,772.184143 1307.434204,772.295105 1307.031494,772.244385 
	C1306.250244,771.542969 1306.354126,770.981873 1307.402100,770.467896 
z"/>
<path fill="#D1D9DB" opacity="1.000000" stroke="none" 
	d="
M1790.398071,1407.702026 
	C1789.966309,1407.276733 1790.157227,1406.770996 1790.889526,1406.119873 
	C1791.548096,1406.562256 1791.411377,1407.111328 1790.398071,1407.702026 
z"/>
<path fill="#D1D9DB" opacity="1.000000" stroke="none" 
	d="
M1791.518066,1311.585449 
	C1790.841797,1311.696899 1790.482544,1311.162231 1790.318604,1310.004395 
	C1790.758179,1310.032349 1791.198608,1310.551636 1791.518066,1311.585449 
z"/>
<path fill="#D2DADC" opacity="1.000000" stroke="none" 
	d="
M1789.969604,1193.479492 
	C1789.322632,1193.668091 1789.086792,1193.143188 1789.386353,1192.194824 
	C1789.719727,1192.271484 1789.872803,1192.603027 1789.969604,1193.479492 
z"/>
<path fill="#D2DADC" opacity="1.000000" stroke="none" 
	d="
M1789.511841,1137.588379 
	C1788.841064,1137.712158 1788.478149,1137.193848 1788.292969,1136.060547 
	C1788.730713,1136.078613 1789.180298,1136.578735 1789.511841,1137.588379 
z"/>
<path fill="#4D6A72" opacity="1.000000" stroke="none" 
	d="
M459.501831,1666.325928 
	C463.294312,1641.741211 467.020630,1617.146240 470.894958,1592.574341 
	C476.578094,1556.530884 482.348938,1520.501221 488.115936,1484.470947 
	C494.356293,1445.483643 500.788330,1406.526245 506.828888,1367.508057 
	C509.614899,1349.512085 511.231964,1331.331665 514.161682,1313.362427 
	C518.039490,1289.577759 522.973999,1265.966431 526.931763,1242.193481 
	C532.869446,1206.527954 538.349487,1170.786255 544.031311,1135.078003 
	C549.609741,1100.019287 555.370300,1064.988281 560.681396,1029.889038 
	C562.412476,1018.449097 562.770691,1006.807983 564.151550,995.306274 
	C565.190430,986.652832 566.899841,978.081299 568.229980,969.460815 
	C568.834839,965.540222 569.244263,961.589539 570.550537,956.796021 
	C572.212769,955.969421 573.066895,955.999268 573.920959,956.029114 
	C578.534790,985.167969 583.302795,1014.283447 587.724915,1043.451416 
	C593.737366,1083.109863 599.542419,1122.800293 605.330688,1162.492432 
	C610.880127,1200.547363 616.217834,1238.633301 621.791016,1276.684814 
	C626.930969,1311.779175 632.329956,1346.835571 637.484436,1381.927856 
	C641.821045,1411.452393 645.911987,1441.012817 650.215210,1470.542358 
	C657.193542,1518.427979 664.301086,1566.294556 671.260559,1614.182861 
	C673.787781,1631.572510 676.046997,1649.001221 677.881714,1667.756470 
	C673.377197,1669.403442 669.419617,1669.966431 665.461548,1669.969849 
	C601.264526,1670.024780 537.067444,1670.011719 472.870361,1669.999512 
	C469.879700,1669.998901 466.810303,1670.242065 463.929077,1669.643188 
	C462.294128,1669.303345 460.967407,1667.480713 459.501831,1666.325928 
z"/>
<path fill="#78B4B8" opacity="1.000000" stroke="none" 
	d="
M459.062866,1666.865479 
	C460.967407,1667.480713 462.294128,1669.303345 463.929077,1669.643188 
	C466.810303,1670.242065 469.879700,1669.998901 472.870361,1669.999512 
	C537.067444,1670.011719 601.264526,1670.024780 665.461548,1669.969849 
	C669.419617,1669.966431 673.377197,1669.403442 678.085388,1668.628418 
	C678.608643,1669.241455 678.541809,1671.194458 678.128113,1671.270874 
	C675.550537,1671.747314 672.895325,1671.973389 670.265747,1671.974609 
	C602.857056,1672.005981 535.448303,1672.001221 468.039612,1671.991089 
	C465.717407,1671.990723 463.221436,1672.357788 461.140381,1671.616211 
	C459.952179,1671.192993 459.440216,1668.871826 459.062866,1666.865479 
z"/>
<path fill="#798F95" opacity="1.000000" stroke="none" 
	d="
M574.009644,955.257446 
	C573.066895,955.999268 572.212769,955.969421 570.718872,955.984192 
	C570.059326,953.915771 570.039612,951.802856 570.665161,948.812744 
	C572.124695,948.052795 572.938843,948.170105 573.753052,948.287354 
	C573.868103,950.353516 573.983215,952.419678 574.009644,955.257446 
z"/>
<path fill="#D1D9DB" opacity="1.000000" stroke="none" 
	d="
M573.764221,947.683105 
	C572.938843,948.170105 572.124695,948.052795 570.699097,948.020386 
	C570.538330,946.718018 570.989014,945.330811 571.439636,943.943542 
	C572.218201,944.988647 572.996826,946.033691 573.764221,947.683105 
z"/>
</svg>